<mxfile host="app.diagrams.net" modified="2023-10-02T20:55:48.256Z" agent="Mozilla/5.0 (Windows NT 10.0; Win64; x64) AppleWebKit/537.36 (KHTML, like Gecko) Chrome/117.0.0.0 Safari/537.36" etag="9XAjAiSE1gCahE8Bxwp9" version="21.8.2" type="github">
  <diagram name="PÃ¡gina-1" id="xWw4U0b69Ajo3L1mM4mY">
    <mxGraphModel dx="1128" dy="482" grid="1" gridSize="10" guides="1" tooltips="1" connect="1" arrows="1" fold="1" page="1" pageScale="1" pageWidth="1600" pageHeight="1200" math="0" shadow="0">
      <root>
        <mxCell id="0" />
        <mxCell id="1" parent="0" />
        <mxCell id="Nd3lActIxTJFORC95tNq-4" value="" style="edgeStyle=orthogonalEdgeStyle;rounded=0;orthogonalLoop=1;jettySize=auto;html=1;" edge="1" parent="1" source="Nd3lActIxTJFORC95tNq-13" target="Nd3lActIxTJFORC95tNq-3">
          <mxGeometry relative="1" as="geometry">
            <mxPoint x="145.99175999999989" y="443.83719999999994" as="sourcePoint" />
            <Array as="points">
              <mxPoint x="250" y="440" />
              <mxPoint x="250" y="440" />
            </Array>
          </mxGeometry>
        </mxCell>
        <mxCell id="Nd3lActIxTJFORC95tNq-8" style="edgeStyle=orthogonalEdgeStyle;rounded=0;orthogonalLoop=1;jettySize=auto;html=1;" edge="1" parent="1" source="Nd3lActIxTJFORC95tNq-3" target="Nd3lActIxTJFORC95tNq-5">
          <mxGeometry relative="1" as="geometry">
            <Array as="points">
              <mxPoint x="400" y="440" />
              <mxPoint x="400" y="440" />
            </Array>
          </mxGeometry>
        </mxCell>
        <mxCell id="Nd3lActIxTJFORC95tNq-3" value="Amazon Athena" style="sketch=0;outlineConnect=0;fontColor=#232F3E;gradientColor=none;strokeColor=#ffffff;fillColor=#8C4FFF;dashed=0;verticalLabelPosition=middle;verticalAlign=bottom;align=center;html=1;whiteSpace=wrap;fontSize=10;fontStyle=1;spacing=3;shape=mxgraph.aws4.productIcon;prIcon=mxgraph.aws4.athena;" vertex="1" parent="1">
          <mxGeometry x="270" y="399" width="80" height="110" as="geometry" />
        </mxCell>
        <mxCell id="Nd3lActIxTJFORC95tNq-9" style="edgeStyle=orthogonalEdgeStyle;rounded=0;orthogonalLoop=1;jettySize=auto;html=1;entryX=0.019;entryY=0.634;entryDx=0;entryDy=0;entryPerimeter=0;" edge="1" parent="1">
          <mxGeometry relative="1" as="geometry">
            <mxPoint x="691.7527500000001" y="440.3000000000001" as="targetPoint" />
            <mxPoint x="583.51" y="439.5800000000001" as="sourcePoint" />
          </mxGeometry>
        </mxCell>
        <mxCell id="Nd3lActIxTJFORC95tNq-5" value="" style="shape=image;verticalLabelPosition=bottom;labelBackgroundColor=default;verticalAlign=top;aspect=fixed;imageAspect=0;image=data:image/jpeg,/9j/4AAQSkZJRgABAQAAAQABAAD/2wCEAAkGBwgNCAgIDQ0IDQgHCA0HBwgICA8IDQgNFREYFhURExcYHTQsGBomGxMTIjEhJykrMS4uFx8zODMsNygtOjEBCgoKDg0OGg8PFSsdFR0uKzMrKzc3MSstLjcrKy4tNzcrNy8sLSstKystNy0rKysrLSstKzc3KysrLSsrNSs3Lf/AABEIAMIBAwMBEQACEQEDEQH/xAAbAAEBAQEBAQEBAAAAAAAAAAAAAQYFAwQCB//EADoQAQABAwEDBQ0IAwEAAAAAAAABAgMRBDNysQUGFVFzBxITFCNSYoGRksHC0SEiMUFCU3GCYZOhFv/EABoBAQACAwEAAAAAAAAAAAAAAAABBQMEBgL/xAAzEQEAAQEEBwYFBQEBAAAAAAAAAQIDBTGBBBEVMkJSwRMUUaGx0RIhMzRBQ1NhcfCRIv/aAAwDAQACEQMRAD8A/uIAAAAAAAAAAAAAAAJVVTTTNUzEU0xmqqqcREIqqimNczqhMRr+UOfVy5ybEzHhqPs+z7Kaqo4NCb00SPl2kebN3a15U6d5M/ep9yv6G1dE/c9fZPdbXlOnuTP3qf8AXX9Dauifuevsd1teU6e5M/ep/wBdf0Nq6J+5Hn7HdbXlOnuTP3qf9df0Nq6J+5Hn7HdbXlI5d5MmYjw9H29dNVMcExemiT8u0jzO62vK6FFVNVMVUzE01RmmqmcxMN6mqKo1xOuGCYmPlL9JQAAAAAAAAAAAAAAAAAAAAAAAAzvPG/XFrT2InFN6qqu5Efq73GI/6oL+tKoooojCZnXk39Bpiapq8GVy5lZpkEyAkQAGq5maiubep08zM0WqqbluJ/T32cx/x0txWlU0V2c4Rq1ZqzTqYiYq/MtKv2gAAAAAAAAAAAAAAAAAAAAAAAAy3PKfv6Xdr+Dnb/8A08+ix0DiyZrLnFiJEABEgDScytrq9yj4uhuHG0y6q7T+HNrHRK4AAAAAAAAAAAAAAAAAAAAAAABleee00u7X8HO3/wDp59FjoHFkzTnViAiRAATKRpeZO11e5R8XQXDjaZdVdp/Dm1rolcAAAAAAAAAAAAAAAAAAAAAAAAynPTaaTdr+Dnb+/Tz6LHQOLJmnPLFAATKRAAaXmRtdXuUfF0Fw42mXVXafw5tc6JXAAAAAAAAAAAAAAAAAAAAAAAAMpz12mk3a/g56/v08+ix0DiyZlzqxTKRMgAgCRpuY+11e5R8XQXFjaZdVdp/Dm1zoVcAAAAAAAAAAAAAAAAAAAA5PKHKNyLlVq3iIonFVeMzMqHT7yrptJs7L5asZbdlYRMa6nydIar9yfdp+jQ2jpPP6ezN2FHgnSGq/cn3afojaOk8/p7HYUeCdI6v9yfdp+htHSef09jsKPB8usnw80zd+/NvPeZ+7jP8ADXt9ItLfV2lWvUy2dMUbvyfL4lpvMj3pYPhhk+Orxed7k+xNM97He1fpmJmY9aPhhMWk/lx6omJmmfxpnEx/l4Z0BAQGn5j7XWblv4uguLG0y6q/T+HNr3Qq0AAAAAAAAAAAAAAAAAABJ/AGY1E5u3Z67lU/9cZpX1q/7lZ2e7Dzy13tMiUygTIJlAmRLP6mfLXu1r4vE4tmnCHllCTIIkafmNtdZuW/iv7ixtMuqv0/hzbB0KtAAAAAAAAAAAAAAAAAAASr8J/gGWvz5W5v1cXF6V9ev+5WlnuQ88td7TIJkEyhKTIGRLPajbXu1r4vEtinCHmJQSJGn5i7XWblv4r648bTLqrrw4c2xdCrQAAAAAAAAAAAAAAAAAAEn8J/gGVvz5W52lXFxWlfXr/uVpZ7kPLLXe0yJMgmRKZQJkGf1G2vdrXxRLYpweY9JkEBqeYm11m5b+Zf3HjXl1V14cObYugVoAAAAAAAAAAAAAAAAAACVfhP8Ayeonyt3tKuLitL+vX/AHPqtbPch55a72mRKZQJkEyJTKBn9RPlr3a18RsU4PMSZSIDU8w9rrdy38y+uPGvLqrrw4c2ydArQAAAAAAAAAAAAAAAHz16yzE4zM482Mw1K9NsaZ1a9bJFlVKePWfS9152hY/ynsqjx6z6Xum0LH+TsaknXWcfq902hY/z/wAOxqcC9p7k3K6oxiquao+9/lzVvZ1V2tVUYTMt6iqIpiJfjxW76PvMPYVvfaQ8blFVM4mMdXVLHVTNOL1ExOD8ZeXpMoEyCZBwNRtr3a18UtinB5iUyAkarmFtdbuW/mX1x415dVdeHDm2S/VoAAAAAAAAAAAAAADw1lUxZrx+M/da2l1TTY1TD3ZxrqhynPtxEBkEQCEoDw1kR4KqfNmJj2sNt86XujFzstJnMgmUJQHA1G2vdrXxemenB5pSgJkGr5g7XW7lv5l9cmNeXVXXhw5tmv1aAAAAAAAAAAAAAAA+TlHZRvQ1NN+hV/vyyWW9DmOfbYCISIEAQl46vY1+rixWu5L1Ri5rSZ0EpkEygcDUT5a92tfFkZ6cHnkSAmUjV8wNrrdy38y9uTGvLqrrw4c20X6tAAAAAAAAAAAAAAAfJylso3oamnfQq/35ZLLehy3Pa24IEARrSiAB46ufI1+rixWu7L3Ri5mWmzmUD85EmQcDUba92tXFkZoweeUvSZBMg1nc/wBrrdy38y9uTGvLqrbw4c21X6tAAAAAAAAAAAAAAAfJylsf7Q1NO+hVl6sllvw5TnG4CUQCBBIgeOr2Nfq4sdruy9UYuZlpthMgmUJTIODqNtd7WrizQy04PIehIgNb3Ptrrty38y9uTGvLqrrw4c21XysAAAAAAAAAAAAAAAfJynsf7Q09P+hVl6sllvw5LnG6IEQkBEADw1k+Rr9XFjtd2XujeczLTZ0yJQEygcHUba72tXFnjBmpweaUgIka3ufbXXblv5l5cuNeXVW3hw5tsvlaAAAAAAAAAAAAAAA+PlPY/wBoaen/AG9WXqy2O/DkuaboCIBGsQBCXhrNjX6uLHabsvVGLl5arYTIGUJTIODqJ8rd7Wri2IwZYweeUpTIANb3Pdrrty38y8uXGvLqrbw4c23XytAAAAAAAAAAAAAAAfHypsP7Q07w+3qy9WSx34chzLeRACRGsRAgPHWbGv1cWO03XujFy8tVsICZQJkS4V/a3e1q4tmMGSMHmlKJEBr+55tdduWvmXly415dVbeHDm269VoAAAAAAAAAAAAAAD4+VNh/aGleH29WXqy2O/DjuZbqISIEQkyCIHjrNhX6uLxabr1RvOVlrNhMoEEpkHCv7W72tXFs04QyRg88vSTIlAa/ud7XX7lr5l5c2NeXVWXhw5twvVaAAAAAAAAAAAAAAA+PlXYf2hpXj9vVl6stjvw4zl28iEgIgARCXhrdhX6uLHXuvVG85TXbCZQAIJcK/Plbva1cW3ThDJGDzSlEgDYdzra6/ctfMu7mxry6q28OHNuF6rAAAAAAAAAAAAAAAHxcq7Cd6GleP29WXqy2O/DjOWb6IBAiEgIDw1uwr9XF4r3XqjecprNhMiUyCZQOHf2t3tauLcpwhkjB5vSUSANh3Odrr5/LvLUZ95d3NG/l1Vt48ObcrxWAAAAAAAAAAAAAAAPl5RtzVYqiP5ea6IrpmmrCUxOqdcM9NdUfZNM5jqlRV3PXr/8AFcav5bUaTGr5wnhJ82r2w8bHtuaPP2T3mnwPCT5tXtg2Pbc0efsd5p8Dwk+bV7YRsa25o8/Y7zT4HhJ82r2wbGtuaPP2O80+B4SfNq9sGxrbmjz9jvNPg8tR31duqiImJqxiZmOtFVy20xq+KPP2eqdKpideqXxeJ3vR9rDsK356fP2Ze/UeEp4le9H2mwbfnp8/Y79R4SeJXvR9psG356fP2T36jwlPEb3o+02Db89Pn7HfqPCXOuchaqa66u+s4rrmqM1T+c/w2Iua1iNXxR5vUafR4S/P/n9X51n3p+idj2vNHmbQs/CT/wA/q/Os+2fobHteaPM2hZ+Ekc3tVmM1WcfnMTMkXPa/muPM2hRyy2nNTk2nTWKqYzM1z31yuYxNcrnRdGpsKPhp+fjKvtrabWr4pd9sMIAAAAAAAAAAAAAACTH5A+a5obNU5x+IPz0dY6gOjrHUB0dY6gOjrHUB0dY6gOjrHUB0dY6gOjrHUB0dY6gOjrHUB0dY6gOjrHUB0dY6gI5PsZzgH1UUU0xiIxEA/QAAAAAAAAAAAAAAAAAAAAAAAAAAAAAAAAAAAAAAAAAP/9k=;" vertex="1" parent="1">
          <mxGeometry x="450" y="399" width="133.51" height="100" as="geometry" />
        </mxCell>
        <mxCell id="Nd3lActIxTJFORC95tNq-10" value="" style="shape=image;verticalLabelPosition=bottom;labelBackgroundColor=default;verticalAlign=top;aspect=fixed;imageAspect=0;image=data:image/png,iVBORw0KGgoAAAANSUhEUgAAAPEAAADRCAMAAAAquaQNAAAAUVBMVEX///9h2vtZ2ftQ1/to2/u+7v31/P/u+v627P3C7/3L8f3g9/7z/P993/yg5/z5/f/W9P6t6v2I4vze9v5y3fuR5Pzo+f7S8/6b5vx83/yp6f22NKMxAAAOIUlEQVR4nOVd2ZqrIAweQetWlzrVLu//oMdukkCQTZ0z438x37RVJBCSEJL49RWMMuvj6I2qzofwFgGGvK4+jcd9Vi7auBfSO+OMRRPY+LEvFmq86NXG7+lCjfvh2HPQIdCxvg1uu+0RtVPjvD8u0HNPZBS9735FWRPQcpNFM21ni1Hg2Kubrk/vjtUHz5YPtZbcV9O3kNH0RhrN9upFs0/PGgO9j5ajH1jNqalXL5pPzg2fjPQ+W96c5KNNt56z4Sa4CyPnfBr2XTK+iC07FkW8sp+OtOK2zbJ4ReoIXDHBjI+s+PhD6xNb1iZl/9jmp3X8/XVVCiW0cCoYr5KXoZW2WUcpUXa2McSGM3En413WvphkSCpENA/X+faAneIdJudCWSUWKjRTGXq0Ni7omqFDFy1K03znAEk8V3/PY6X3JhVKKHceU02Dltl2lggk+Ju8or3JNDM2x4Stshb4jb7+G5K8AC1WSETv+EV30bdCM79rW7wr197okRxxEdeyJJASW8TikfXMZRdZg7GK5uymki+MtQM5ohZXb6ShIF/NXylrGxZRMnuIZFVnWJ+AFbScsCjEGDNCtCAcOolduWqBFfIlncmaykUH5nhsOYAZMV9cSCJJsUZOmGDGLKxScLkXBY4opy5aaYdGmmbeo5976dfOZrcltCPfwg0EHmfnjMilWazAb5LM4nbC9+g26KHopk7eLO9IsdBm8WceG/kH2z3Hbbql86DAFUJs2I8v5l0WvZjjiIW0xO9zEHy2wUJOBUc5qIZE4uyHlhq8OPqJb7Gy1vcMXMTDXG4rscweJU6J5505ySAx7HO2yjIQDHV2uu+A94IswR/Pbi6Ns8fS8sVkfzD7ZfdCh2lEH1wFUD/1Yn0bZOo3c3ba1TqXDnfu9mnqxfrCWvCTycRUQWz6nwS7c2buubZ8IDjRw+ki29Avgj2OqVqxKNxvdsTUZy8Dr1VJ9nJXCUHvpDG8IB7lpQlLZe/vZRmn21HciEf5HfENEsV+x83CsuZrH0EFP6qJEcGxZyuhA2+PYIoxwb4k/yKKFS8881Ivv4fiTibY04bYkGLwKI/DvatKsN8B0mE7ydWEaKeTxuZyP2ROt6MY6GNnvYIsLnRm5mx1DT9igbj6ipHxwdExhLMZInzm6ztBxCQ57sUPaFYT7BZxPfEXfon1jyW8905QET9XLlrVjh3Pnd2L/hD7Y7c9HtRLb+kMJbejjso23B9f/bwPJ0jdx2MNvdVuDgbhiVk/NsLP+wCOQGHMCvRX6w9mCQR4Ypzh5X1IkZQSGrRB0sxBwYd4YlwhvA8OmhBJLajHB0/pJZTT+uEvqYdFC6WWZG1Aq8R+nRxDLD9nuA8vdOgp6w6KNGsXnxejeWPiUNslVM5PI2IAS9sr2dAAgWLSTj0h6UR1EC5yZrcvqDdUx19f94mCynzxl2R6UEv/6L6Up9QJpo8fWg6F20kminajVz506dpZcqILS6VkzGFwkpPlnNT64OS4lNOALasPhLB2ClKZ41jkDDI3WmwqqqG9Y15EPSSlLNv2UhR5niRJlmXj3zwvikvbliUcGPOZ5d3H7gvA1VZ0NSkODXgkL5HAgW48SQ0SWwiubWKscxNPpW1xunYxl2PAbcHGO+PuespbjaAQ62p9q/oBILokKZO2Sf2g9DlxXsQCsp+TP1JeJzLh5caCCw7xFKxybLPr+UVqIKUU5Zyfr1k76fJsY8EFNvJPIXO8nDpGZ0gsSzhn3enymG5h9dnZQOEA6jPpo9WJlclOxOf13QEvgAP6zYiFZIt/N8sNsU5KWhkbLeNj3of1E6nisKb6fPXM3CE7k1nBJhL5EyyKz7eq67r+hfG/6naOo8/PHi3zc7aihhpOsY9NwfKiLYejIfvnOJRtkfs0z+PTKkQfH7NrM+qPdLsz+MbpGA0dxt10eYEE0dnS7F1U5pzgp6XQn4ryAAxRVy8F2EWNJuShLE792YZuxqsFt8rp3fDEF63Z5WMNIq+G2/ku9BFNztL0Y9EZRvy+DHdfDNM7Co86xwY2mCjno2HA1xJ7lHk9kj3flSo8+Dg3CatY9VnoO22D+eEq5VghmWYq2dEBmVluEOEg0JXnHrMA+Vr1pB2M1g8LCLnW0juuW/G/EuwPsuyoxFUjQO6M6iBOoIWr7Z4fzbkmo3+ktm6B/0rev4CjJOZ3nA0Sc5UN8E08+KutdUVDWOQ+1N90oYBJ3YuJlNka9MnzUAieREpjJpj6Nf1ao4jFbmEqTU8tF2jdtIRb4Akotnw3cyet8BJMPfm+dUTz3kGGJHQFgxqKZXEFngZwp/+ZEBDIWHjdyO/Lmq7YYJtPdCBKVKgmjfBoIt69g+nx372CUwrkIgbJVpIXkzQK+c3K9izUWxmvlRUJ2BpIRrAEnXNlIICfGw5opjK1eDRRHIfZGEBXtehBRAp70TzgXmg+BNVuoo0YkN1O3ZWp6oWbPNqNGg0ca4YJSOtpfUNuDEu9yqjVUUqSWkWhqBh2nh35QZYAM2V5qMcDiTMrtoZxK1y0s3Y/1RQ1yDIUmhmbeY6ctsFmizGoLJbbiK3hdHv78McNl34vD9nlY06QC0lBIk+bfni+JYJnylk8ILTm55DRYldcYL/CuPHSMRHcKb/vFQ+cXzJysQ1d0KxEMLsZLCagKippCHTWVktYciym2SFVTJmKVojUvVIFGZrkARNsob6rCPWg0ShRAVUPvO6m9dhdkvtgCMxnEVLCM3VA1eCBP1vobsBlDwqvChtiHLU1vVhMPg20d0UjYHNUf5S0jiqxER9YJosiEtO5HeSXoUwdWUQuwavEMKAKUCqsuo07IYItXTU1HPVuXpIaytSRUUBAG/SQoyyjfnGWgrStQYvYOoYf3FWBKSajaOe9NfQogYhdngKpYevAw3kK+C7oYJ7T2BLEbdBFTfkB+vkp1pjhYK8NlqV98AcqzoBug/Pvcu5OniFQLHKhpTS6jeAMJZP1OTYO/g1IMlqrgOXcUlyobSllfBjpfYC4j8iBc8t+gUYGWDhwvbgV+arVHlE8YnWeRM3doE6yY62EhJQvYiRd/cupurek1qNJbL1ACS91/bs6zyjigA/YeVOrsB0VZy4b7BpQC+oo3+rs828I6kCFL+dNrVwYgIwpI3ifAmmbysmd7r4kUATos24E53iEGUgMS6YS2DG1xnLh5msMEDuez4oTUfEeQX9StRpKrDR2TK1ZU5hBfMonCjb5DFdYWSAcU0nlH1ouY41mxCdNPomZSvEln+wWAJStRmqOwm4Z6/ZEcJK9nP5K5kxgNRHIs/SQJdYUkywLV7Kfg1QOJAUuOp/mzNo8kOIAc+EN2SG4vzne3zren6zeoT7ej831mdHV7er7/2ZX72/vtL/98Q59IPvzc/1hXyYkDNk3u/NX7/BMYoFzJzCLv+HcaYdnixucHx/+s/Pj/cUIKKrgT8WBaGTxL4r1mXcM2Mb67DCe62/E7MmxmbMxe3Rcpsao+xtxmV/7i7390sVXK5zxd+Kr/1YMvW0ZznxneRJfO8yF+dpfvtMDe8tpe+A/z1vU5iOvkqsp8KdyUx/wyT++0OaDJaARo7qP1s4/fqDdWY75Az9fR+CS9VZ1BBYskLqzWhFP/EA9kLN9PZDz4vVAnthZzZc30fuq6/PCzmo3vWAb17E2tiqzt8MabD9bZ6//gTp7oiTp9rUUH+t2+1qKhDNg03qZwC2wDcH7q4lqrnv7/cfq3u6vtvH+6lcLntpJjfL91aHf37sGQt4nQcYi//fvk9jfO0P2914YIap38u6f/b3faX/v8Nrfe9r29y6+/b1vcX/v1Nzfe1PFrOzl3bhCE+7l/ccBG7Xf+Y7roPeYZ/RhhrVxKbDhe8z39676Y9ijiBw1L/3SeFj3ngik+EuNZvZyzv0iipVMLz/t8psobjDJsWcr21Ec/KhBmmM/Z2TwwDsgcC+uZJs6Gx9PpNvpY6WaiBvksgORZ+B5YNUWJ0w99fE+FJQJ4m5xoTAF95sdEeJ9WM7m8vLEeCLA+1DTBFunwgL4eWL8ILwPrrku2N7CH1z73ft5YryQefLTAVtbTKqOE7tZ6WJthQVT20AtC2SFEodJjIIe6ynGnER/WPElN4CUIweXgJQO/EwlHLCJ7ZKr800nW60EcZJpz1A4mYhFL3PtiBezJvGaAijV49x/d3TOTrU0ltbsxzBs5B9sJ2zKiNnkbBHkDtpZ1jJHw2PnyouzhVW9geBCKbE2j2s6KaMf866UPMc7m40BGHQvq9wVYFrMFxdSKBtXTlMlDnALp9liGaO6JyZD8yBNMGVDy7Y270yqGVRQW9/+eAAWWJi/MpOC9hi5Gx6kdEFmsrPB6LgnJ3oBZHrPjfFFeQuPJlSmqeQL4zm7AmQJbhET8QDMHdR27fum7P31cTlyOYuI37SzBzPmPAor+sEiREuhl83up1slVpffLIK/FqDFDigqjZBeeayWX6gM2T8yZ48tUymIOSR4C2X8BupYh8XRpacy+s2dI9wFjPd41QxY9i9K0zyQu4rxKnkRnbZZR6VDsbONx3JQvPfPhKYue4dZlwlOJQyozOCBq6xQ+Ct9j65gYMt9sjZ7Ez21jr/fJrZ6grbWlgJe2W/oUqIwhwZsK830wcGS4pnCQCSUsjzahj2ONsMwW0Ru6pZiRptxssquIMvUrYzUOBuM1z5HJA1RrkZuOfoBgsee3WY7NtLry3iHuyGR/7b6YZMGpGx9kxtlQbWbMl2pDxfZvwKOlLXxUKJ9uK5sezLTeWx7owxcDdI7Qx175lIulbxQ9GrjS1ZH8EWZ9dP+sarzZbNThryekiLiPlvAyfMP4tKzfzPV1pIAAAAASUVORK5CYII=;" vertex="1" parent="1">
          <mxGeometry x="690" y="399" width="92.25" height="80" as="geometry" />
        </mxCell>
        <mxCell id="Nd3lActIxTJFORC95tNq-13" value="" style="sketch=0;outlineConnect=0;fontColor=#232F3E;gradientColor=none;fillColor=#C925D1;strokeColor=none;dashed=0;verticalLabelPosition=bottom;verticalAlign=top;align=center;html=1;fontSize=12;fontStyle=0;aspect=fixed;pointerEvents=1;shape=mxgraph.aws4.rds_instance;" vertex="1" parent="1">
          <mxGeometry x="80" y="401" width="78" height="78" as="geometry" />
        </mxCell>
      </root>
    </mxGraphModel>
  </diagram>
</mxfile>
